<?xml version="1.0" encoding="utf-8"?>
<!-- Generator: Adobe Illustrator 21.0.0, SVG Export Plug-In . SVG Version: 6.00 Build 0)  -->
<svg version="1.1" id="Layer_1" xmlns="http://www.w3.org/2000/svg" xmlns:xlink="http://www.w3.org/1999/xlink" x="0px" y="0px"
	 viewBox="0 0 300 194.7" style="enable-background:new 0 0 300 194.7;" xml:space="preserve">
<style type="text/css">
	.st0{fill:#777777;}
</style>
<g>
	<path class="st0" d="M286.3,65.9c5.2,6.4,2,21.3-11.4,25.5c-1.6,0.5-3.1,0.8-4.5,1c0.1-2.5,0-4.5-0.1-6.6
		c-1-18.8-13.8-20.5-18.9-15.9c-5.7,5-5.3,19,6.8,26.1c1,0.6,2.1,1.1,3.3,1.5c-3,15.1-9.9,15.7-12.9,12.4c-1.8-1.9-2.8-5.2-3.4-8.9
		c2.2-7.3,3.1-14.5,2.4-17.6c-0.4-1.9-1.2-3.2-2.1-3.6c-0.3-0.2-1.1-0.4-2.6,0.1c-2.1,0.7-3.5,2.8-3.8,3.7c-1,2.6-0.7,8.1,0,15.9
		l0.1,0.7c-1.8,4.1-4,7.4-6.6,7.9c-3.1,0.6-6.5-5.1-9.3-16.5c4.6-12.5,12.6-35.8,8.6-52.9c-2.6-11.3-8.3-13.2-12.8-12.3
		c-13.6,2.5-11,48.5-6.3,68.9l0.3,1.2c-1.9,5.9-4.6,11.1-8,11.8c-3.1,0.6-6.5-5.1-9.3-16.5c4.6-12.5,11.6-36.4,7.7-53.5
		c-2.6-11.3-7.4-12.5-11.9-11.7c-13.6,2.5-11,48.5-6.3,68.9c0.3,1.2,0.5,2.3,0.8,3.4c-2.7,7.2-6.6,15.1-10.9,13.3
		c-0.7-0.3-1.3-0.7-1.9-1.1c4.1-6.5,6.6-15.6,6.5-24.1c-0.2-18-17.5-24.7-21.7-4.5c-1.8,8.8,1,19.3,5.7,26.9
		c-1.6,0.5-3.3,0.4-4.9-0.2c-5.2-1.9-7.4-11.1-8.2-17c-0.1-0.5-0.1-1-0.1-1.6c-0.7-9.1-0.1-20.9,2-35.2c2.2,0.3,4.5,0.4,6.8,0.3
		c23.4-0.8,13.5-25.5,13.5-25.5c-3.8,8.5-10.3,11.7-18,12.3l1.7-7.7l2.9-11.9l0-0.1c0.2-1,0-1.9-0.6-2.6c-0.6-0.7-1.6-1.1-2.8-1.1
		c-3.4,0-11.2,3.4-11.4,5.8c-0.5,4.4-1.1,8.9-1.8,13.1l-0.4,3.6c-9.3-1.5-19.3-4.5-28.3-6.1l-0.1,0c-0.7-0.1-1.4-0.2-2.2-0.3
		c-11.6-1.7-20.4-0.9-26.8,1c6.4-36.9-29.5-47.3-41-23.9c-8,16.1-3.2,43.8,2.8,72.5c-2.5,2.1-5,4.7-7.3,7.7
		c-5.2-7.1-12.2-11.6-20.2-9.1c-18.8,6.1-23.2,40.7-16,69.1c8.7,34.8,30.4,45.6,46.4,41c16-4.5,20.3-32.7,15.4-59.9
		c-2.2-12.1-5.8-27.8-8.7-45.6c1.5-0.8,2.9-1.5,4.3-2.1c-0.4,2.9-0.6,7.2,0.5,13.6c2.1,12.1,8.6,20,17.4,21.2
		c9.3,1.3,14-9.9,15.6-20.8c2.1-0.2,3.9-0.9,5.4-1.9l0,0.7c0.1,3.6,0.4,6.6,1,9c2.3,11.3,6.6,13.3,7.3,13.2c2.3-0.4,5.3-4.5,5.1-4.5
		c-0.1,0-0.1,0-0.1-0.1c0.1-5.9,3.8-17.4,6.5-26.4c0.4,18.5,6.3,27.9,12,30.3c2,0.9,9,3.2,14.8-8.7c2.9,4.9,7.5,8.6,14.8,8.2
		c3-0.2,5.8-1.6,8.2-3.9c4.7,4.1,10.1,5.4,15,1.3c2.3-1.9,4.1-4.8,5.4-7.7c3.5,8.3,7.9,12.2,13.9,11.1c5.3-1,9.5-7.2,12.4-14.3
		c3.7,10.4,8.4,15.4,15,14.2c4.3-0.8,7.9-5,10.6-10.4c2.3,5.6,6.2,10.1,11.8,11.3c8.9,1.8,13.2-9.8,14.7-15.9
		c0.6-2.5,1.1-4.7,1.4-6.6c12.3,0.5,27.2-5.4,30.1-17.5C302.8,68.4,286.3,65.9,286.3,65.9L286.3,65.9z M67.1,58.6
		c-1.5-1.3,0.9-7.4,7.9-12.2c-0.9,2.9-1.6,4.9-1.7,5.1C70.9,56.6,68.3,59.6,67.1,58.6z M57.1,139c5.1,42.2-12.7,50.9-29.5,24.5
		c-10.8-17-15.1-57.3-6-66.9c4.3-4.6,9.5-2.2,13.6,2.6c-0.6,1.2-1.2,2.4-1.7,3.6c-9.8,23,5.3,33.8,12.2,24.9
		c4.2-5.5,2.6-18.2-2.5-28.7l0.2-0.3c1.5-1.9,3.3-3.7,5.1-5.2C52,109.2,55.5,124.9,57.1,139L57.1,139z M42.9,118.7
		c-0.7,8-5.9-2.2-3.1-12.6C41.9,110.5,43.2,115.2,42.9,118.7z M85,91.5c-0.5-0.3-0.8-0.6-0.8-0.6c-1.8-1.8-2.6-4.6-2.7-7.1
		c-0.3-4.3,3.1-2.7,3.5,4.9C85,89.5,85,90.5,85,91.5z M120.9,72.8c0,0-10,22-11.2,31.1c-0.3-8.9,1.9-18.9,3.7-25.8
		c2.6-4,3.2-6.4,3-7.5c-0.7-3.6-9.4-1.9-12.2-0.2c-2.1,7.2-3.4,13.3-4,18.7c-1.6,2.7-3.5,4.1-5.4,4.7c0.2-3.9,0-7.5-0.5-9.8
		C92,73.1,86.3,71,81.2,71.3c-5.1,0.3-9.9,6.6-6.3,16.8c1.8,5,5.4,8.9,9.5,10.6c-1,7-3.3,14.2-7.5,14.6c-6.6,0.6-8.4-12.6-8.4-18.4
		c0-5.2,1.3-9.6,2.5-12.5l0,0l0,0c0.9-2.2,1.8-3.5,1.8-3.5s-1-4.3-2.7-4.8C70,74,69.9,74,69.8,74l-0.3,0l0,0h0l-0.1,0
		c-2.1,0.3-7.9,1.7-14.4,5.3c-1.5-10.3-2.7-21.2-3.2-32.4C50.3,12.6,68.7,5.7,75,18.9c3.1,6.5,2.7,14.4,1.6,20.8
		C68.2,44,63.8,50.1,62.3,54.5c-2.3,7,3.8,13.7,10.4,8.9c2.8-2,5.3-6,7.3-10.9l0,0c1.5-3.5,2.7-6.9,3.6-10.1c1.7-0.6,3.4-1,5.3-1.4
		c0.9-0.2,1.7-0.3,2.6-0.4c3.4-0.5,7.3-0.6,11.5-0.3c12.9,1,25.1,8.5,38.2,12.6c-0.6,5.4-0.9,10.7-1.1,16l-0.3,9.6
		c0.1,13.6,1.8,22.5,4.1,28.2c-7.4,10.1-11.6,1-12.7-1.8c-2.6-7.5-2.6-20,0.2-32.5C132.6,70,125.7,69,120.9,72.8L120.9,72.8z
		 M166.8,87c1.2-12.8,9.5-10.5,8.5,1.3c-0.6,7.5-2.9,13.5-6,17.2C166.9,100.2,166.2,93,166.8,87z M195.2,41.4
		c1.4-0.3,2.1,2.5,2.6,4.5c2.6,11.2-0.9,25.6-4,35.3C191.3,63.2,192.3,41.9,195.2,41.4z M222.7,41.3c1.4-0.3,2.1,2.5,2.6,4.5
		c2.6,11.2-0.9,25.6-4,35.3C218.8,63.1,219.8,41.8,222.7,41.3L222.7,41.3z M262.4,91.1c-5.3-2.6-6.6-8.6-6.4-10.8
		C256.6,75.8,264,74.6,262.4,91.1z"/>
	<path class="st0" d="M77.7,146.7c0,0-1.7,1.8,0.6,6.2c2.3,4.3,4.7,6.5,5.5,6.6c0.8,0.1,26.5-17.7,85.6-18.8
		c48.1-0.9,81.3,11.2,81.9,10.8s2.3-4.3,0.3-6.3c-2-1.9-30.1-19.5-106.2-15.7C89.8,132.2,77.7,146.7,77.7,146.7L77.7,146.7z"/>
</g>
</svg>
